<?xml version="1.0" encoding="UTF-8"?>
<svg width="1260px" height="740px" viewBox="0 0 1260 740" version="1.1" xmlns="http://www.w3.org/2000/svg" xmlns:xlink="http://www.w3.org/1999/xlink">
    <!-- Generator: Sketch 42 (36781) - http://www.bohemiancoding.com/sketch -->
    <title>Combined Shape</title>
    <desc>Created with Sketch.</desc>
    <defs></defs>
    <g id="Page-1" stroke="none" stroke-width="1" fill="none" fill-rule="evenodd">
        <g id="normal-copy" transform="translate(-90.000000, -51.000000)" fill="#986890">
            <path d="M1345,784 L1345,779 L1343,779 L1343,784 L1338,784 L1338,786 L1343,786 L1343,791 L1345,791 L1345,786 L1350,786 L1350,784 L1345,784 Z M1293,784 L1293,779 L1291,779 L1291,784 L1286,784 L1286,786 L1291,786 L1291,791 L1293,791 L1293,786 L1298,786 L1298,784 L1293,784 Z M1241,784 L1241,779 L1239,779 L1239,784 L1234,784 L1234,786 L1239,786 L1239,791 L1241,791 L1241,786 L1246,786 L1246,784 L1241,784 Z M1189,784 L1189,779 L1187,779 L1187,784 L1182,784 L1182,786 L1187,786 L1187,791 L1189,791 L1189,786 L1194,786 L1194,784 L1189,784 Z M1137,784 L1137,779 L1135,779 L1135,784 L1130,784 L1130,786 L1135,786 L1135,791 L1137,791 L1137,786 L1142,786 L1142,784 L1137,784 Z M1085,784 L1085,779 L1083,779 L1083,784 L1078,784 L1078,786 L1083,786 L1083,791 L1085,791 L1085,786 L1090,786 L1090,784 L1085,784 Z M1033,784 L1033,779 L1031,779 L1031,784 L1026,784 L1026,786 L1031,786 L1031,791 L1033,791 L1033,786 L1038,786 L1038,784 L1033,784 Z M981,784 L981,779 L979,779 L979,784 L974,784 L974,786 L979,786 L979,791 L981,791 L981,786 L986,786 L986,784 L981,784 Z M929,784 L929,779 L927,779 L927,784 L922,784 L922,786 L927,786 L927,791 L929,791 L929,786 L934,786 L934,784 L929,784 Z M877,784 L877,779 L875,779 L875,784 L870,784 L870,786 L875,786 L875,791 L877,791 L877,786 L882,786 L882,784 L877,784 Z M825,784 L825,779 L823,779 L823,784 L818,784 L818,786 L823,786 L823,791 L825,791 L825,786 L830,786 L830,784 L825,784 Z M773,784 L773,779 L771,779 L771,784 L766,784 L766,786 L771,786 L771,791 L773,791 L773,786 L778,786 L778,784 L773,784 Z M721,784 L721,779 L719,779 L719,784 L714,784 L714,786 L719,786 L719,791 L721,791 L721,786 L726,786 L726,784 L721,784 Z M669,784 L669,779 L667,779 L667,784 L662,784 L662,786 L667,786 L667,791 L669,791 L669,786 L674,786 L674,784 L669,784 Z M617,784 L617,779 L615,779 L615,784 L610,784 L610,786 L615,786 L615,791 L617,791 L617,786 L622,786 L622,784 L617,784 Z M565,784 L565,779 L563,779 L563,784 L558,784 L558,786 L563,786 L563,791 L565,791 L565,786 L570,786 L570,784 L565,784 Z M513,784 L513,779 L511,779 L511,784 L506,784 L506,786 L511,786 L511,791 L513,791 L513,786 L518,786 L518,784 L513,784 Z M461,784 L461,779 L459,779 L459,784 L454,784 L454,786 L459,786 L459,791 L461,791 L461,786 L466,786 L466,784 L461,784 Z M409,784 L409,779 L407,779 L407,784 L402,784 L402,786 L407,786 L407,791 L409,791 L409,786 L414,786 L414,784 L409,784 Z M357,784 L357,779 L355,779 L355,784 L350,784 L350,786 L355,786 L355,791 L357,791 L357,786 L362,786 L362,784 L357,784 Z M305,784 L305,779 L303,779 L303,784 L298,784 L298,786 L303,786 L303,791 L305,791 L305,786 L310,786 L310,784 L305,784 Z M253,784 L253,779 L251,779 L251,784 L246,784 L246,786 L251,786 L251,791 L253,791 L253,786 L258,786 L258,784 L253,784 Z M201,784 L201,779 L199,779 L199,784 L194,784 L194,786 L199,786 L199,791 L201,791 L201,786 L206,786 L206,784 L201,784 Z M149,784 L149,779 L147,779 L147,784 L142,784 L142,786 L147,786 L147,791 L149,791 L149,786 L154,786 L154,784 L149,784 Z M97,784 L97,779 L95,779 L95,784 L90,784 L90,786 L95,786 L95,791 L97,791 L97,786 L102,786 L102,784 L97,784 Z M1345,732 L1345,727 L1343,727 L1343,732 L1338,732 L1338,734 L1343,734 L1343,739 L1345,739 L1345,734 L1350,734 L1350,732 L1345,732 Z M1293,732 L1293,727 L1291,727 L1291,732 L1286,732 L1286,734 L1291,734 L1291,739 L1293,739 L1293,734 L1298,734 L1298,732 L1293,732 Z M1241,732 L1241,727 L1239,727 L1239,732 L1234,732 L1234,734 L1239,734 L1239,739 L1241,739 L1241,734 L1246,734 L1246,732 L1241,732 Z M1189,732 L1189,727 L1187,727 L1187,732 L1182,732 L1182,734 L1187,734 L1187,739 L1189,739 L1189,734 L1194,734 L1194,732 L1189,732 Z M1137,732 L1137,727 L1135,727 L1135,732 L1130,732 L1130,734 L1135,734 L1135,739 L1137,739 L1137,734 L1142,734 L1142,732 L1137,732 Z M1085,732 L1085,727 L1083,727 L1083,732 L1078,732 L1078,734 L1083,734 L1083,739 L1085,739 L1085,734 L1090,734 L1090,732 L1085,732 Z M1033,732 L1033,727 L1031,727 L1031,732 L1026,732 L1026,734 L1031,734 L1031,739 L1033,739 L1033,734 L1038,734 L1038,732 L1033,732 Z M981,732 L981,727 L979,727 L979,732 L974,732 L974,734 L979,734 L979,739 L981,739 L981,734 L986,734 L986,732 L981,732 Z M929,732 L929,727 L927,727 L927,732 L922,732 L922,734 L927,734 L927,739 L929,739 L929,734 L934,734 L934,732 L929,732 Z M877,732 L877,727 L875,727 L875,732 L870,732 L870,734 L875,734 L875,739 L877,739 L877,734 L882,734 L882,732 L877,732 Z M825,732 L825,727 L823,727 L823,732 L818,732 L818,734 L823,734 L823,739 L825,739 L825,734 L830,734 L830,732 L825,732 Z M773,732 L773,727 L771,727 L771,732 L766,732 L766,734 L771,734 L771,739 L773,739 L773,734 L778,734 L778,732 L773,732 Z M721,732 L721,727 L719,727 L719,732 L714,732 L714,734 L719,734 L719,739 L721,739 L721,734 L726,734 L726,732 L721,732 Z M669,732 L669,727 L667,727 L667,732 L662,732 L662,734 L667,734 L667,739 L669,739 L669,734 L674,734 L674,732 L669,732 Z M617,732 L617,727 L615,727 L615,732 L610,732 L610,734 L615,734 L615,739 L617,739 L617,734 L622,734 L622,732 L617,732 Z M565,732 L565,727 L563,727 L563,732 L558,732 L558,734 L563,734 L563,739 L565,739 L565,734 L570,734 L570,732 L565,732 Z M513,732 L513,727 L511,727 L511,732 L506,732 L506,734 L511,734 L511,739 L513,739 L513,734 L518,734 L518,732 L513,732 Z M461,732 L461,727 L459,727 L459,732 L454,732 L454,734 L459,734 L459,739 L461,739 L461,734 L466,734 L466,732 L461,732 Z M409,732 L409,727 L407,727 L407,732 L402,732 L402,734 L407,734 L407,739 L409,739 L409,734 L414,734 L414,732 L409,732 Z M357,732 L357,727 L355,727 L355,732 L350,732 L350,734 L355,734 L355,739 L357,739 L357,734 L362,734 L362,732 L357,732 Z M305,732 L305,727 L303,727 L303,732 L298,732 L298,734 L303,734 L303,739 L305,739 L305,734 L310,734 L310,732 L305,732 Z M253,732 L253,727 L251,727 L251,732 L246,732 L246,734 L251,734 L251,739 L253,739 L253,734 L258,734 L258,732 L253,732 Z M201,732 L201,727 L199,727 L199,732 L194,732 L194,734 L199,734 L199,739 L201,739 L201,734 L206,734 L206,732 L201,732 Z M149,732 L149,727 L147,727 L147,732 L142,732 L142,734 L147,734 L147,739 L149,739 L149,734 L154,734 L154,732 L149,732 Z M97,732 L97,727 L95,727 L95,732 L90,732 L90,734 L95,734 L95,739 L97,739 L97,734 L102,734 L102,732 L97,732 Z M1345,680 L1345,675 L1343,675 L1343,680 L1338,680 L1338,682 L1343,682 L1343,687 L1345,687 L1345,682 L1350,682 L1350,680 L1345,680 Z M1293,680 L1293,675 L1291,675 L1291,680 L1286,680 L1286,682 L1291,682 L1291,687 L1293,687 L1293,682 L1298,682 L1298,680 L1293,680 Z M1241,680 L1241,675 L1239,675 L1239,680 L1234,680 L1234,682 L1239,682 L1239,687 L1241,687 L1241,682 L1246,682 L1246,680 L1241,680 Z M1189,680 L1189,675 L1187,675 L1187,680 L1182,680 L1182,682 L1187,682 L1187,687 L1189,687 L1189,682 L1194,682 L1194,680 L1189,680 Z M1137,680 L1137,675 L1135,675 L1135,680 L1130,680 L1130,682 L1135,682 L1135,687 L1137,687 L1137,682 L1142,682 L1142,680 L1137,680 Z M1085,680 L1085,675 L1083,675 L1083,680 L1078,680 L1078,682 L1083,682 L1083,687 L1085,687 L1085,682 L1090,682 L1090,680 L1085,680 Z M1033,680 L1033,675 L1031,675 L1031,680 L1026,680 L1026,682 L1031,682 L1031,687 L1033,687 L1033,682 L1038,682 L1038,680 L1033,680 Z M981,680 L981,675 L979,675 L979,680 L974,680 L974,682 L979,682 L979,687 L981,687 L981,682 L986,682 L986,680 L981,680 Z M929,680 L929,675 L927,675 L927,680 L922,680 L922,682 L927,682 L927,687 L929,687 L929,682 L934,682 L934,680 L929,680 Z M877,680 L877,675 L875,675 L875,680 L870,680 L870,682 L875,682 L875,687 L877,687 L877,682 L882,682 L882,680 L877,680 Z M825,680 L825,675 L823,675 L823,680 L818,680 L818,682 L823,682 L823,687 L825,687 L825,682 L830,682 L830,680 L825,680 Z M773,680 L773,675 L771,675 L771,680 L766,680 L766,682 L771,682 L771,687 L773,687 L773,682 L778,682 L778,680 L773,680 Z M721,680 L721,675 L719,675 L719,680 L714,680 L714,682 L719,682 L719,687 L721,687 L721,682 L726,682 L726,680 L721,680 Z M669,680 L669,675 L667,675 L667,680 L662,680 L662,682 L667,682 L667,687 L669,687 L669,682 L674,682 L674,680 L669,680 Z M617,680 L617,675 L615,675 L615,680 L610,680 L610,682 L615,682 L615,687 L617,687 L617,682 L622,682 L622,680 L617,680 Z M565,680 L565,675 L563,675 L563,680 L558,680 L558,682 L563,682 L563,687 L565,687 L565,682 L570,682 L570,680 L565,680 Z M513,680 L513,675 L511,675 L511,680 L506,680 L506,682 L511,682 L511,687 L513,687 L513,682 L518,682 L518,680 L513,680 Z M461,680 L461,675 L459,675 L459,680 L454,680 L454,682 L459,682 L459,687 L461,687 L461,682 L466,682 L466,680 L461,680 Z M409,680 L409,675 L407,675 L407,680 L402,680 L402,682 L407,682 L407,687 L409,687 L409,682 L414,682 L414,680 L409,680 Z M357,680 L357,675 L355,675 L355,680 L350,680 L350,682 L355,682 L355,687 L357,687 L357,682 L362,682 L362,680 L357,680 Z M305,680 L305,675 L303,675 L303,680 L298,680 L298,682 L303,682 L303,687 L305,687 L305,682 L310,682 L310,680 L305,680 Z M253,680 L253,675 L251,675 L251,680 L246,680 L246,682 L251,682 L251,687 L253,687 L253,682 L258,682 L258,680 L253,680 Z M201,680 L201,675 L199,675 L199,680 L194,680 L194,682 L199,682 L199,687 L201,687 L201,682 L206,682 L206,680 L201,680 Z M149,680 L149,675 L147,675 L147,680 L142,680 L142,682 L147,682 L147,687 L149,687 L149,682 L154,682 L154,680 L149,680 Z M97,680 L97,675 L95,675 L95,680 L90,680 L90,682 L95,682 L95,687 L97,687 L97,682 L102,682 L102,680 L97,680 Z M1345,628 L1345,623 L1343,623 L1343,628 L1338,628 L1338,630 L1343,630 L1343,635 L1345,635 L1345,630 L1350,630 L1350,628 L1345,628 Z M1293,628 L1293,623 L1291,623 L1291,628 L1286,628 L1286,630 L1291,630 L1291,635 L1293,635 L1293,630 L1298,630 L1298,628 L1293,628 Z M1241,628 L1241,623 L1239,623 L1239,628 L1234,628 L1234,630 L1239,630 L1239,635 L1241,635 L1241,630 L1246,630 L1246,628 L1241,628 Z M1189,628 L1189,623 L1187,623 L1187,628 L1182,628 L1182,630 L1187,630 L1187,635 L1189,635 L1189,630 L1194,630 L1194,628 L1189,628 Z M1137,628 L1137,623 L1135,623 L1135,628 L1130,628 L1130,630 L1135,630 L1135,635 L1137,635 L1137,630 L1142,630 L1142,628 L1137,628 Z M1085,628 L1085,623 L1083,623 L1083,628 L1078,628 L1078,630 L1083,630 L1083,635 L1085,635 L1085,630 L1090,630 L1090,628 L1085,628 Z M1033,628 L1033,623 L1031,623 L1031,628 L1026,628 L1026,630 L1031,630 L1031,635 L1033,635 L1033,630 L1038,630 L1038,628 L1033,628 Z M981,628 L981,623 L979,623 L979,628 L974,628 L974,630 L979,630 L979,635 L981,635 L981,630 L986,630 L986,628 L981,628 Z M929,628 L929,623 L927,623 L927,628 L922,628 L922,630 L927,630 L927,635 L929,635 L929,630 L934,630 L934,628 L929,628 Z M877,628 L877,623 L875,623 L875,628 L870,628 L870,630 L875,630 L875,635 L877,635 L877,630 L882,630 L882,628 L877,628 Z M825,628 L825,623 L823,623 L823,628 L818,628 L818,630 L823,630 L823,635 L825,635 L825,630 L830,630 L830,628 L825,628 Z M773,628 L773,623 L771,623 L771,628 L766,628 L766,630 L771,630 L771,635 L773,635 L773,630 L778,630 L778,628 L773,628 Z M721,628 L721,623 L719,623 L719,628 L714,628 L714,630 L719,630 L719,635 L721,635 L721,630 L726,630 L726,628 L721,628 Z M669,628 L669,623 L667,623 L667,628 L662,628 L662,630 L667,630 L667,635 L669,635 L669,630 L674,630 L674,628 L669,628 Z M617,628 L617,623 L615,623 L615,628 L610,628 L610,630 L615,630 L615,635 L617,635 L617,630 L622,630 L622,628 L617,628 Z M565,628 L565,623 L563,623 L563,628 L558,628 L558,630 L563,630 L563,635 L565,635 L565,630 L570,630 L570,628 L565,628 Z M513,628 L513,623 L511,623 L511,628 L506,628 L506,630 L511,630 L511,635 L513,635 L513,630 L518,630 L518,628 L513,628 Z M461,628 L461,623 L459,623 L459,628 L454,628 L454,630 L459,630 L459,635 L461,635 L461,630 L466,630 L466,628 L461,628 Z M409,628 L409,623 L407,623 L407,628 L402,628 L402,630 L407,630 L407,635 L409,635 L409,630 L414,630 L414,628 L409,628 Z M357,628 L357,623 L355,623 L355,628 L350,628 L350,630 L355,630 L355,635 L357,635 L357,630 L362,630 L362,628 L357,628 Z M305,628 L305,623 L303,623 L303,628 L298,628 L298,630 L303,630 L303,635 L305,635 L305,630 L310,630 L310,628 L305,628 Z M253,628 L253,623 L251,623 L251,628 L246,628 L246,630 L251,630 L251,635 L253,635 L253,630 L258,630 L258,628 L253,628 Z M201,628 L201,623 L199,623 L199,628 L194,628 L194,630 L199,630 L199,635 L201,635 L201,630 L206,630 L206,628 L201,628 Z M149,628 L149,623 L147,623 L147,628 L142,628 L142,630 L147,630 L147,635 L149,635 L149,630 L154,630 L154,628 L149,628 Z M97,628 L97,623 L95,623 L95,628 L90,628 L90,630 L95,630 L95,635 L97,635 L97,630 L102,630 L102,628 L97,628 Z M1345,576 L1345,571 L1343,571 L1343,576 L1338,576 L1338,578 L1343,578 L1343,583 L1345,583 L1345,578 L1350,578 L1350,576 L1345,576 Z M1293,576 L1293,571 L1291,571 L1291,576 L1286,576 L1286,578 L1291,578 L1291,583 L1293,583 L1293,578 L1298,578 L1298,576 L1293,576 Z M1241,576 L1241,571 L1239,571 L1239,576 L1234,576 L1234,578 L1239,578 L1239,583 L1241,583 L1241,578 L1246,578 L1246,576 L1241,576 Z M1189,576 L1189,571 L1187,571 L1187,576 L1182,576 L1182,578 L1187,578 L1187,583 L1189,583 L1189,578 L1194,578 L1194,576 L1189,576 Z M1137,576 L1137,571 L1135,571 L1135,576 L1130,576 L1130,578 L1135,578 L1135,583 L1137,583 L1137,578 L1142,578 L1142,576 L1137,576 Z M1085,576 L1085,571 L1083,571 L1083,576 L1078,576 L1078,578 L1083,578 L1083,583 L1085,583 L1085,578 L1090,578 L1090,576 L1085,576 Z M1033,576 L1033,571 L1031,571 L1031,576 L1026,576 L1026,578 L1031,578 L1031,583 L1033,583 L1033,578 L1038,578 L1038,576 L1033,576 Z M981,576 L981,571 L979,571 L979,576 L974,576 L974,578 L979,578 L979,583 L981,583 L981,578 L986,578 L986,576 L981,576 Z M929,576 L929,571 L927,571 L927,576 L922,576 L922,578 L927,578 L927,583 L929,583 L929,578 L934,578 L934,576 L929,576 Z M877,576 L877,571 L875,571 L875,576 L870,576 L870,578 L875,578 L875,583 L877,583 L877,578 L882,578 L882,576 L877,576 Z M825,576 L825,571 L823,571 L823,576 L818,576 L818,578 L823,578 L823,583 L825,583 L825,578 L830,578 L830,576 L825,576 Z M773,576 L773,571 L771,571 L771,576 L766,576 L766,578 L771,578 L771,583 L773,583 L773,578 L778,578 L778,576 L773,576 Z M721,576 L721,571 L719,571 L719,576 L714,576 L714,578 L719,578 L719,583 L721,583 L721,578 L726,578 L726,576 L721,576 Z M669,576 L669,571 L667,571 L667,576 L662,576 L662,578 L667,578 L667,583 L669,583 L669,578 L674,578 L674,576 L669,576 Z M617,576 L617,571 L615,571 L615,576 L610,576 L610,578 L615,578 L615,583 L617,583 L617,578 L622,578 L622,576 L617,576 Z M565,576 L565,571 L563,571 L563,576 L558,576 L558,578 L563,578 L563,583 L565,583 L565,578 L570,578 L570,576 L565,576 Z M513,576 L513,571 L511,571 L511,576 L506,576 L506,578 L511,578 L511,583 L513,583 L513,578 L518,578 L518,576 L513,576 Z M461,576 L461,571 L459,571 L459,576 L454,576 L454,578 L459,578 L459,583 L461,583 L461,578 L466,578 L466,576 L461,576 Z M409,576 L409,571 L407,571 L407,576 L402,576 L402,578 L407,578 L407,583 L409,583 L409,578 L414,578 L414,576 L409,576 Z M357,576 L357,571 L355,571 L355,576 L350,576 L350,578 L355,578 L355,583 L357,583 L357,578 L362,578 L362,576 L357,576 Z M305,576 L305,571 L303,571 L303,576 L298,576 L298,578 L303,578 L303,583 L305,583 L305,578 L310,578 L310,576 L305,576 Z M253,576 L253,571 L251,571 L251,576 L246,576 L246,578 L251,578 L251,583 L253,583 L253,578 L258,578 L258,576 L253,576 Z M201,576 L201,571 L199,571 L199,576 L194,576 L194,578 L199,578 L199,583 L201,583 L201,578 L206,578 L206,576 L201,576 Z M149,576 L149,571 L147,571 L147,576 L142,576 L142,578 L147,578 L147,583 L149,583 L149,578 L154,578 L154,576 L149,576 Z M97,576 L97,571 L95,571 L95,576 L90,576 L90,578 L95,578 L95,583 L97,583 L97,578 L102,578 L102,576 L97,576 Z M1345,524 L1345,519 L1343,519 L1343,524 L1338,524 L1338,526 L1343,526 L1343,531 L1345,531 L1345,526 L1350,526 L1350,524 L1345,524 Z M1293,524 L1293,519 L1291,519 L1291,524 L1286,524 L1286,526 L1291,526 L1291,531 L1293,531 L1293,526 L1298,526 L1298,524 L1293,524 Z M1241,524 L1241,519 L1239,519 L1239,524 L1234,524 L1234,526 L1239,526 L1239,531 L1241,531 L1241,526 L1246,526 L1246,524 L1241,524 Z M1189,524 L1189,519 L1187,519 L1187,524 L1182,524 L1182,526 L1187,526 L1187,531 L1189,531 L1189,526 L1194,526 L1194,524 L1189,524 Z M1137,524 L1137,519 L1135,519 L1135,524 L1130,524 L1130,526 L1135,526 L1135,531 L1137,531 L1137,526 L1142,526 L1142,524 L1137,524 Z M1085,524 L1085,519 L1083,519 L1083,524 L1078,524 L1078,526 L1083,526 L1083,531 L1085,531 L1085,526 L1090,526 L1090,524 L1085,524 Z M1033,524 L1033,519 L1031,519 L1031,524 L1026,524 L1026,526 L1031,526 L1031,531 L1033,531 L1033,526 L1038,526 L1038,524 L1033,524 Z M981,524 L981,519 L979,519 L979,524 L974,524 L974,526 L979,526 L979,531 L981,531 L981,526 L986,526 L986,524 L981,524 Z M929,524 L929,519 L927,519 L927,524 L922,524 L922,526 L927,526 L927,531 L929,531 L929,526 L934,526 L934,524 L929,524 Z M877,524 L877,519 L875,519 L875,524 L870,524 L870,526 L875,526 L875,531 L877,531 L877,526 L882,526 L882,524 L877,524 Z M825,524 L825,519 L823,519 L823,524 L818,524 L818,526 L823,526 L823,531 L825,531 L825,526 L830,526 L830,524 L825,524 Z M773,524 L773,519 L771,519 L771,524 L766,524 L766,526 L771,526 L771,531 L773,531 L773,526 L778,526 L778,524 L773,524 Z M721,524 L721,519 L719,519 L719,524 L714,524 L714,526 L719,526 L719,531 L721,531 L721,526 L726,526 L726,524 L721,524 Z M669,524 L669,519 L667,519 L667,524 L662,524 L662,526 L667,526 L667,531 L669,531 L669,526 L674,526 L674,524 L669,524 Z M617,524 L617,519 L615,519 L615,524 L610,524 L610,526 L615,526 L615,531 L617,531 L617,526 L622,526 L622,524 L617,524 Z M565,524 L565,519 L563,519 L563,524 L558,524 L558,526 L563,526 L563,531 L565,531 L565,526 L570,526 L570,524 L565,524 Z M513,524 L513,519 L511,519 L511,524 L506,524 L506,526 L511,526 L511,531 L513,531 L513,526 L518,526 L518,524 L513,524 Z M461,524 L461,519 L459,519 L459,524 L454,524 L454,526 L459,526 L459,531 L461,531 L461,526 L466,526 L466,524 L461,524 Z M409,524 L409,519 L407,519 L407,524 L402,524 L402,526 L407,526 L407,531 L409,531 L409,526 L414,526 L414,524 L409,524 Z M357,524 L357,519 L355,519 L355,524 L350,524 L350,526 L355,526 L355,531 L357,531 L357,526 L362,526 L362,524 L357,524 Z M305,524 L305,519 L303,519 L303,524 L298,524 L298,526 L303,526 L303,531 L305,531 L305,526 L310,526 L310,524 L305,524 Z M253,524 L253,519 L251,519 L251,524 L246,524 L246,526 L251,526 L251,531 L253,531 L253,526 L258,526 L258,524 L253,524 Z M201,524 L201,519 L199,519 L199,524 L194,524 L194,526 L199,526 L199,531 L201,531 L201,526 L206,526 L206,524 L201,524 Z M149,524 L149,519 L147,519 L147,524 L142,524 L142,526 L147,526 L147,531 L149,531 L149,526 L154,526 L154,524 L149,524 Z M97,524 L97,519 L95,519 L95,524 L90,524 L90,526 L95,526 L95,531 L97,531 L97,526 L102,526 L102,524 L97,524 Z M1345,472 L1345,467 L1343,467 L1343,472 L1338,472 L1338,474 L1343,474 L1343,479 L1345,479 L1345,474 L1350,474 L1350,472 L1345,472 Z M1293,472 L1293,467 L1291,467 L1291,472 L1286,472 L1286,474 L1291,474 L1291,479 L1293,479 L1293,474 L1298,474 L1298,472 L1293,472 Z M1241,472 L1241,467 L1239,467 L1239,472 L1234,472 L1234,474 L1239,474 L1239,479 L1241,479 L1241,474 L1246,474 L1246,472 L1241,472 Z M1189,472 L1189,467 L1187,467 L1187,472 L1182,472 L1182,474 L1187,474 L1187,479 L1189,479 L1189,474 L1194,474 L1194,472 L1189,472 Z M1137,472 L1137,467 L1135,467 L1135,472 L1130,472 L1130,474 L1135,474 L1135,479 L1137,479 L1137,474 L1142,474 L1142,472 L1137,472 Z M1085,472 L1085,467 L1083,467 L1083,472 L1078,472 L1078,474 L1083,474 L1083,479 L1085,479 L1085,474 L1090,474 L1090,472 L1085,472 Z M1033,472 L1033,467 L1031,467 L1031,472 L1026,472 L1026,474 L1031,474 L1031,479 L1033,479 L1033,474 L1038,474 L1038,472 L1033,472 Z M981,472 L981,467 L979,467 L979,472 L974,472 L974,474 L979,474 L979,479 L981,479 L981,474 L986,474 L986,472 L981,472 Z M929,472 L929,467 L927,467 L927,472 L922,472 L922,474 L927,474 L927,479 L929,479 L929,474 L934,474 L934,472 L929,472 Z M877,472 L877,467 L875,467 L875,472 L870,472 L870,474 L875,474 L875,479 L877,479 L877,474 L882,474 L882,472 L877,472 Z M825,472 L825,467 L823,467 L823,472 L818,472 L818,474 L823,474 L823,479 L825,479 L825,474 L830,474 L830,472 L825,472 Z M773,472 L773,467 L771,467 L771,472 L766,472 L766,474 L771,474 L771,479 L773,479 L773,474 L778,474 L778,472 L773,472 Z M721,472 L721,467 L719,467 L719,472 L714,472 L714,474 L719,474 L719,479 L721,479 L721,474 L726,474 L726,472 L721,472 Z M669,472 L669,467 L667,467 L667,472 L662,472 L662,474 L667,474 L667,479 L669,479 L669,474 L674,474 L674,472 L669,472 Z M617,472 L617,467 L615,467 L615,472 L610,472 L610,474 L615,474 L615,479 L617,479 L617,474 L622,474 L622,472 L617,472 Z M565,472 L565,467 L563,467 L563,472 L558,472 L558,474 L563,474 L563,479 L565,479 L565,474 L570,474 L570,472 L565,472 Z M513,472 L513,467 L511,467 L511,472 L506,472 L506,474 L511,474 L511,479 L513,479 L513,474 L518,474 L518,472 L513,472 Z M461,472 L461,467 L459,467 L459,472 L454,472 L454,474 L459,474 L459,479 L461,479 L461,474 L466,474 L466,472 L461,472 Z M409,472 L409,467 L407,467 L407,472 L402,472 L402,474 L407,474 L407,479 L409,479 L409,474 L414,474 L414,472 L409,472 Z M357,472 L357,467 L355,467 L355,472 L350,472 L350,474 L355,474 L355,479 L357,479 L357,474 L362,474 L362,472 L357,472 Z M305,472 L305,467 L303,467 L303,472 L298,472 L298,474 L303,474 L303,479 L305,479 L305,474 L310,474 L310,472 L305,472 Z M253,472 L253,467 L251,467 L251,472 L246,472 L246,474 L251,474 L251,479 L253,479 L253,474 L258,474 L258,472 L253,472 Z M201,472 L201,467 L199,467 L199,472 L194,472 L194,474 L199,474 L199,479 L201,479 L201,474 L206,474 L206,472 L201,472 Z M149,472 L149,467 L147,467 L147,472 L142,472 L142,474 L147,474 L147,479 L149,479 L149,474 L154,474 L154,472 L149,472 Z M97,472 L97,467 L95,467 L95,472 L90,472 L90,474 L95,474 L95,479 L97,479 L97,474 L102,474 L102,472 L97,472 Z M1345,420 L1345,415 L1343,415 L1343,420 L1338,420 L1338,422 L1343,422 L1343,427 L1345,427 L1345,422 L1350,422 L1350,420 L1345,420 Z M1293,420 L1293,415 L1291,415 L1291,420 L1286,420 L1286,422 L1291,422 L1291,427 L1293,427 L1293,422 L1298,422 L1298,420 L1293,420 Z M1241,420 L1241,415 L1239,415 L1239,420 L1234,420 L1234,422 L1239,422 L1239,427 L1241,427 L1241,422 L1246,422 L1246,420 L1241,420 Z M1189,420 L1189,415 L1187,415 L1187,420 L1182,420 L1182,422 L1187,422 L1187,427 L1189,427 L1189,422 L1194,422 L1194,420 L1189,420 Z M1137,420 L1137,415 L1135,415 L1135,420 L1130,420 L1130,422 L1135,422 L1135,427 L1137,427 L1137,422 L1142,422 L1142,420 L1137,420 Z M1085,420 L1085,415 L1083,415 L1083,420 L1078,420 L1078,422 L1083,422 L1083,427 L1085,427 L1085,422 L1090,422 L1090,420 L1085,420 Z M1033,420 L1033,415 L1031,415 L1031,420 L1026,420 L1026,422 L1031,422 L1031,427 L1033,427 L1033,422 L1038,422 L1038,420 L1033,420 Z M981,420 L981,415 L979,415 L979,420 L974,420 L974,422 L979,422 L979,427 L981,427 L981,422 L986,422 L986,420 L981,420 Z M929,420 L929,415 L927,415 L927,420 L922,420 L922,422 L927,422 L927,427 L929,427 L929,422 L934,422 L934,420 L929,420 Z M877,420 L877,415 L875,415 L875,420 L870,420 L870,422 L875,422 L875,427 L877,427 L877,422 L882,422 L882,420 L877,420 Z M825,420 L825,415 L823,415 L823,420 L818,420 L818,422 L823,422 L823,427 L825,427 L825,422 L830,422 L830,420 L825,420 Z M773,420 L773,415 L771,415 L771,420 L766,420 L766,422 L771,422 L771,427 L773,427 L773,422 L778,422 L778,420 L773,420 Z M721,420 L721,415 L719,415 L719,420 L714,420 L714,422 L719,422 L719,427 L721,427 L721,422 L726,422 L726,420 L721,420 Z M669,420 L669,415 L667,415 L667,420 L662,420 L662,422 L667,422 L667,427 L669,427 L669,422 L674,422 L674,420 L669,420 Z M617,420 L617,415 L615,415 L615,420 L610,420 L610,422 L615,422 L615,427 L617,427 L617,422 L622,422 L622,420 L617,420 Z M565,420 L565,415 L563,415 L563,420 L558,420 L558,422 L563,422 L563,427 L565,427 L565,422 L570,422 L570,420 L565,420 Z M513,420 L513,415 L511,415 L511,420 L506,420 L506,422 L511,422 L511,427 L513,427 L513,422 L518,422 L518,420 L513,420 Z M461,420 L461,415 L459,415 L459,420 L454,420 L454,422 L459,422 L459,427 L461,427 L461,422 L466,422 L466,420 L461,420 Z M409,420 L409,415 L407,415 L407,420 L402,420 L402,422 L407,422 L407,427 L409,427 L409,422 L414,422 L414,420 L409,420 Z M357,420 L357,415 L355,415 L355,420 L350,420 L350,422 L355,422 L355,427 L357,427 L357,422 L362,422 L362,420 L357,420 Z M305,420 L305,415 L303,415 L303,420 L298,420 L298,422 L303,422 L303,427 L305,427 L305,422 L310,422 L310,420 L305,420 Z M253,420 L253,415 L251,415 L251,420 L246,420 L246,422 L251,422 L251,427 L253,427 L253,422 L258,422 L258,420 L253,420 Z M201,420 L201,415 L199,415 L199,420 L194,420 L194,422 L199,422 L199,427 L201,427 L201,422 L206,422 L206,420 L201,420 Z M149,420 L149,415 L147,415 L147,420 L142,420 L142,422 L147,422 L147,427 L149,427 L149,422 L154,422 L154,420 L149,420 Z M97,420 L97,415 L95,415 L95,420 L90,420 L90,422 L95,422 L95,427 L97,427 L97,422 L102,422 L102,420 L97,420 Z M1345,368 L1345,363 L1343,363 L1343,368 L1338,368 L1338,370 L1343,370 L1343,375 L1345,375 L1345,370 L1350,370 L1350,368 L1345,368 Z M1293,368 L1293,363 L1291,363 L1291,368 L1286,368 L1286,370 L1291,370 L1291,375 L1293,375 L1293,370 L1298,370 L1298,368 L1293,368 Z M1241,368 L1241,363 L1239,363 L1239,368 L1234,368 L1234,370 L1239,370 L1239,375 L1241,375 L1241,370 L1246,370 L1246,368 L1241,368 Z M1189,368 L1189,363 L1187,363 L1187,368 L1182,368 L1182,370 L1187,370 L1187,375 L1189,375 L1189,370 L1194,370 L1194,368 L1189,368 Z M1137,368 L1137,363 L1135,363 L1135,368 L1130,368 L1130,370 L1135,370 L1135,375 L1137,375 L1137,370 L1142,370 L1142,368 L1137,368 Z M1085,368 L1085,363 L1083,363 L1083,368 L1078,368 L1078,370 L1083,370 L1083,375 L1085,375 L1085,370 L1090,370 L1090,368 L1085,368 Z M1033,368 L1033,363 L1031,363 L1031,368 L1026,368 L1026,370 L1031,370 L1031,375 L1033,375 L1033,370 L1038,370 L1038,368 L1033,368 Z M981,368 L981,363 L979,363 L979,368 L974,368 L974,370 L979,370 L979,375 L981,375 L981,370 L986,370 L986,368 L981,368 Z M929,368 L929,363 L927,363 L927,368 L922,368 L922,370 L927,370 L927,375 L929,375 L929,370 L934,370 L934,368 L929,368 Z M877,368 L877,363 L875,363 L875,368 L870,368 L870,370 L875,370 L875,375 L877,375 L877,370 L882,370 L882,368 L877,368 Z M825,368 L825,363 L823,363 L823,368 L818,368 L818,370 L823,370 L823,375 L825,375 L825,370 L830,370 L830,368 L825,368 Z M773,368 L773,363 L771,363 L771,368 L766,368 L766,370 L771,370 L771,375 L773,375 L773,370 L778,370 L778,368 L773,368 Z M721,368 L721,363 L719,363 L719,368 L714,368 L714,370 L719,370 L719,375 L721,375 L721,370 L726,370 L726,368 L721,368 Z M669,368 L669,363 L667,363 L667,368 L662,368 L662,370 L667,370 L667,375 L669,375 L669,370 L674,370 L674,368 L669,368 Z M617,368 L617,363 L615,363 L615,368 L610,368 L610,370 L615,370 L615,375 L617,375 L617,370 L622,370 L622,368 L617,368 Z M565,368 L565,363 L563,363 L563,368 L558,368 L558,370 L563,370 L563,375 L565,375 L565,370 L570,370 L570,368 L565,368 Z M513,368 L513,363 L511,363 L511,368 L506,368 L506,370 L511,370 L511,375 L513,375 L513,370 L518,370 L518,368 L513,368 Z M461,368 L461,363 L459,363 L459,368 L454,368 L454,370 L459,370 L459,375 L461,375 L461,370 L466,370 L466,368 L461,368 Z M409,368 L409,363 L407,363 L407,368 L402,368 L402,370 L407,370 L407,375 L409,375 L409,370 L414,370 L414,368 L409,368 Z M357,368 L357,363 L355,363 L355,368 L350,368 L350,370 L355,370 L355,375 L357,375 L357,370 L362,370 L362,368 L357,368 Z M305,368 L305,363 L303,363 L303,368 L298,368 L298,370 L303,370 L303,375 L305,375 L305,370 L310,370 L310,368 L305,368 Z M253,368 L253,363 L251,363 L251,368 L246,368 L246,370 L251,370 L251,375 L253,375 L253,370 L258,370 L258,368 L253,368 Z M201,368 L201,363 L199,363 L199,368 L194,368 L194,370 L199,370 L199,375 L201,375 L201,370 L206,370 L206,368 L201,368 Z M149,368 L149,363 L147,363 L147,368 L142,368 L142,370 L147,370 L147,375 L149,375 L149,370 L154,370 L154,368 L149,368 Z M97,368 L97,363 L95,363 L95,368 L90,368 L90,370 L95,370 L95,375 L97,375 L97,370 L102,370 L102,368 L97,368 Z M1345,316 L1345,311 L1343,311 L1343,316 L1338,316 L1338,318 L1343,318 L1343,323 L1345,323 L1345,318 L1350,318 L1350,316 L1345,316 Z M1293,316 L1293,311 L1291,311 L1291,316 L1286,316 L1286,318 L1291,318 L1291,323 L1293,323 L1293,318 L1298,318 L1298,316 L1293,316 Z M1241,316 L1241,311 L1239,311 L1239,316 L1234,316 L1234,318 L1239,318 L1239,323 L1241,323 L1241,318 L1246,318 L1246,316 L1241,316 Z M1189,316 L1189,311 L1187,311 L1187,316 L1182,316 L1182,318 L1187,318 L1187,323 L1189,323 L1189,318 L1194,318 L1194,316 L1189,316 Z M1137,316 L1137,311 L1135,311 L1135,316 L1130,316 L1130,318 L1135,318 L1135,323 L1137,323 L1137,318 L1142,318 L1142,316 L1137,316 Z M1085,316 L1085,311 L1083,311 L1083,316 L1078,316 L1078,318 L1083,318 L1083,323 L1085,323 L1085,318 L1090,318 L1090,316 L1085,316 Z M1033,316 L1033,311 L1031,311 L1031,316 L1026,316 L1026,318 L1031,318 L1031,323 L1033,323 L1033,318 L1038,318 L1038,316 L1033,316 Z M981,316 L981,311 L979,311 L979,316 L974,316 L974,318 L979,318 L979,323 L981,323 L981,318 L986,318 L986,316 L981,316 Z M929,316 L929,311 L927,311 L927,316 L922,316 L922,318 L927,318 L927,323 L929,323 L929,318 L934,318 L934,316 L929,316 Z M877,316 L877,311 L875,311 L875,316 L870,316 L870,318 L875,318 L875,323 L877,323 L877,318 L882,318 L882,316 L877,316 Z M825,316 L825,311 L823,311 L823,316 L818,316 L818,318 L823,318 L823,323 L825,323 L825,318 L830,318 L830,316 L825,316 Z M773,316 L773,311 L771,311 L771,316 L766,316 L766,318 L771,318 L771,323 L773,323 L773,318 L778,318 L778,316 L773,316 Z M721,316 L721,311 L719,311 L719,316 L714,316 L714,318 L719,318 L719,323 L721,323 L721,318 L726,318 L726,316 L721,316 Z M669,316 L669,311 L667,311 L667,316 L662,316 L662,318 L667,318 L667,323 L669,323 L669,318 L674,318 L674,316 L669,316 Z M617,316 L617,311 L615,311 L615,316 L610,316 L610,318 L615,318 L615,323 L617,323 L617,318 L622,318 L622,316 L617,316 Z M565,316 L565,311 L563,311 L563,316 L558,316 L558,318 L563,318 L563,323 L565,323 L565,318 L570,318 L570,316 L565,316 Z M513,316 L513,311 L511,311 L511,316 L506,316 L506,318 L511,318 L511,323 L513,323 L513,318 L518,318 L518,316 L513,316 Z M461,316 L461,311 L459,311 L459,316 L454,316 L454,318 L459,318 L459,323 L461,323 L461,318 L466,318 L466,316 L461,316 Z M409,316 L409,311 L407,311 L407,316 L402,316 L402,318 L407,318 L407,323 L409,323 L409,318 L414,318 L414,316 L409,316 Z M357,316 L357,311 L355,311 L355,316 L350,316 L350,318 L355,318 L355,323 L357,323 L357,318 L362,318 L362,316 L357,316 Z M305,316 L305,311 L303,311 L303,316 L298,316 L298,318 L303,318 L303,323 L305,323 L305,318 L310,318 L310,316 L305,316 Z M253,316 L253,311 L251,311 L251,316 L246,316 L246,318 L251,318 L251,323 L253,323 L253,318 L258,318 L258,316 L253,316 Z M201,316 L201,311 L199,311 L199,316 L194,316 L194,318 L199,318 L199,323 L201,323 L201,318 L206,318 L206,316 L201,316 Z M149,316 L149,311 L147,311 L147,316 L142,316 L142,318 L147,318 L147,323 L149,323 L149,318 L154,318 L154,316 L149,316 Z M97,316 L97,311 L95,311 L95,316 L90,316 L90,318 L95,318 L95,323 L97,323 L97,318 L102,318 L102,316 L97,316 Z M1345,264 L1345,259 L1343,259 L1343,264 L1338,264 L1338,266 L1343,266 L1343,271 L1345,271 L1345,266 L1350,266 L1350,264 L1345,264 Z M1293,264 L1293,259 L1291,259 L1291,264 L1286,264 L1286,266 L1291,266 L1291,271 L1293,271 L1293,266 L1298,266 L1298,264 L1293,264 Z M1241,264 L1241,259 L1239,259 L1239,264 L1234,264 L1234,266 L1239,266 L1239,271 L1241,271 L1241,266 L1246,266 L1246,264 L1241,264 Z M1189,264 L1189,259 L1187,259 L1187,264 L1182,264 L1182,266 L1187,266 L1187,271 L1189,271 L1189,266 L1194,266 L1194,264 L1189,264 Z M1137,264 L1137,259 L1135,259 L1135,264 L1130,264 L1130,266 L1135,266 L1135,271 L1137,271 L1137,266 L1142,266 L1142,264 L1137,264 Z M1085,264 L1085,259 L1083,259 L1083,264 L1078,264 L1078,266 L1083,266 L1083,271 L1085,271 L1085,266 L1090,266 L1090,264 L1085,264 Z M1033,264 L1033,259 L1031,259 L1031,264 L1026,264 L1026,266 L1031,266 L1031,271 L1033,271 L1033,266 L1038,266 L1038,264 L1033,264 Z M981,264 L981,259 L979,259 L979,264 L974,264 L974,266 L979,266 L979,271 L981,271 L981,266 L986,266 L986,264 L981,264 Z M929,264 L929,259 L927,259 L927,264 L922,264 L922,266 L927,266 L927,271 L929,271 L929,266 L934,266 L934,264 L929,264 Z M877,264 L877,259 L875,259 L875,264 L870,264 L870,266 L875,266 L875,271 L877,271 L877,266 L882,266 L882,264 L877,264 Z M825,264 L825,259 L823,259 L823,264 L818,264 L818,266 L823,266 L823,271 L825,271 L825,266 L830,266 L830,264 L825,264 Z M773,264 L773,259 L771,259 L771,264 L766,264 L766,266 L771,266 L771,271 L773,271 L773,266 L778,266 L778,264 L773,264 Z M721,264 L721,259 L719,259 L719,264 L714,264 L714,266 L719,266 L719,271 L721,271 L721,266 L726,266 L726,264 L721,264 Z M669,264 L669,259 L667,259 L667,264 L662,264 L662,266 L667,266 L667,271 L669,271 L669,266 L674,266 L674,264 L669,264 Z M617,264 L617,259 L615,259 L615,264 L610,264 L610,266 L615,266 L615,271 L617,271 L617,266 L622,266 L622,264 L617,264 Z M565,264 L565,259 L563,259 L563,264 L558,264 L558,266 L563,266 L563,271 L565,271 L565,266 L570,266 L570,264 L565,264 Z M513,264 L513,259 L511,259 L511,264 L506,264 L506,266 L511,266 L511,271 L513,271 L513,266 L518,266 L518,264 L513,264 Z M461,264 L461,259 L459,259 L459,264 L454,264 L454,266 L459,266 L459,271 L461,271 L461,266 L466,266 L466,264 L461,264 Z M409,264 L409,259 L407,259 L407,264 L402,264 L402,266 L407,266 L407,271 L409,271 L409,266 L414,266 L414,264 L409,264 Z M357,264 L357,259 L355,259 L355,264 L350,264 L350,266 L355,266 L355,271 L357,271 L357,266 L362,266 L362,264 L357,264 Z M305,264 L305,259 L303,259 L303,264 L298,264 L298,266 L303,266 L303,271 L305,271 L305,266 L310,266 L310,264 L305,264 Z M253,264 L253,259 L251,259 L251,264 L246,264 L246,266 L251,266 L251,271 L253,271 L253,266 L258,266 L258,264 L253,264 Z M201,264 L201,259 L199,259 L199,264 L194,264 L194,266 L199,266 L199,271 L201,271 L201,266 L206,266 L206,264 L201,264 Z M149,264 L149,259 L147,259 L147,264 L142,264 L142,266 L147,266 L147,271 L149,271 L149,266 L154,266 L154,264 L149,264 Z M97,264 L97,259 L95,259 L95,264 L90,264 L90,266 L95,266 L95,271 L97,271 L97,266 L102,266 L102,264 L97,264 Z M1345,212 L1345,207 L1343,207 L1343,212 L1338,212 L1338,214 L1343,214 L1343,219 L1345,219 L1345,214 L1350,214 L1350,212 L1345,212 Z M1293,212 L1293,207 L1291,207 L1291,212 L1286,212 L1286,214 L1291,214 L1291,219 L1293,219 L1293,214 L1298,214 L1298,212 L1293,212 Z M1241,212 L1241,207 L1239,207 L1239,212 L1234,212 L1234,214 L1239,214 L1239,219 L1241,219 L1241,214 L1246,214 L1246,212 L1241,212 Z M1189,212 L1189,207 L1187,207 L1187,212 L1182,212 L1182,214 L1187,214 L1187,219 L1189,219 L1189,214 L1194,214 L1194,212 L1189,212 Z M1137,212 L1137,207 L1135,207 L1135,212 L1130,212 L1130,214 L1135,214 L1135,219 L1137,219 L1137,214 L1142,214 L1142,212 L1137,212 Z M1085,212 L1085,207 L1083,207 L1083,212 L1078,212 L1078,214 L1083,214 L1083,219 L1085,219 L1085,214 L1090,214 L1090,212 L1085,212 Z M1033,212 L1033,207 L1031,207 L1031,212 L1026,212 L1026,214 L1031,214 L1031,219 L1033,219 L1033,214 L1038,214 L1038,212 L1033,212 Z M981,212 L981,207 L979,207 L979,212 L974,212 L974,214 L979,214 L979,219 L981,219 L981,214 L986,214 L986,212 L981,212 Z M929,212 L929,207 L927,207 L927,212 L922,212 L922,214 L927,214 L927,219 L929,219 L929,214 L934,214 L934,212 L929,212 Z M877,212 L877,207 L875,207 L875,212 L870,212 L870,214 L875,214 L875,219 L877,219 L877,214 L882,214 L882,212 L877,212 Z M825,212 L825,207 L823,207 L823,212 L818,212 L818,214 L823,214 L823,219 L825,219 L825,214 L830,214 L830,212 L825,212 Z M773,212 L773,207 L771,207 L771,212 L766,212 L766,214 L771,214 L771,219 L773,219 L773,214 L778,214 L778,212 L773,212 Z M721,212 L721,207 L719,207 L719,212 L714,212 L714,214 L719,214 L719,219 L721,219 L721,214 L726,214 L726,212 L721,212 Z M669,212 L669,207 L667,207 L667,212 L662,212 L662,214 L667,214 L667,219 L669,219 L669,214 L674,214 L674,212 L669,212 Z M617,212 L617,207 L615,207 L615,212 L610,212 L610,214 L615,214 L615,219 L617,219 L617,214 L622,214 L622,212 L617,212 Z M565,212 L565,207 L563,207 L563,212 L558,212 L558,214 L563,214 L563,219 L565,219 L565,214 L570,214 L570,212 L565,212 Z M513,212 L513,207 L511,207 L511,212 L506,212 L506,214 L511,214 L511,219 L513,219 L513,214 L518,214 L518,212 L513,212 Z M461,212 L461,207 L459,207 L459,212 L454,212 L454,214 L459,214 L459,219 L461,219 L461,214 L466,214 L466,212 L461,212 Z M409,212 L409,207 L407,207 L407,212 L402,212 L402,214 L407,214 L407,219 L409,219 L409,214 L414,214 L414,212 L409,212 Z M357,212 L357,207 L355,207 L355,212 L350,212 L350,214 L355,214 L355,219 L357,219 L357,214 L362,214 L362,212 L357,212 Z M305,212 L305,207 L303,207 L303,212 L298,212 L298,214 L303,214 L303,219 L305,219 L305,214 L310,214 L310,212 L305,212 Z M253,212 L253,207 L251,207 L251,212 L246,212 L246,214 L251,214 L251,219 L253,219 L253,214 L258,214 L258,212 L253,212 Z M201,212 L201,207 L199,207 L199,212 L194,212 L194,214 L199,214 L199,219 L201,219 L201,214 L206,214 L206,212 L201,212 Z M149,212 L149,207 L147,207 L147,212 L142,212 L142,214 L147,214 L147,219 L149,219 L149,214 L154,214 L154,212 L149,212 Z M97,212 L97,207 L95,207 L95,212 L90,212 L90,214 L95,214 L95,219 L97,219 L97,214 L102,214 L102,212 L97,212 Z M1345,160 L1345,155 L1343,155 L1343,160 L1338,160 L1338,162 L1343,162 L1343,167 L1345,167 L1345,162 L1350,162 L1350,160 L1345,160 Z M1293,160 L1293,155 L1291,155 L1291,160 L1286,160 L1286,162 L1291,162 L1291,167 L1293,167 L1293,162 L1298,162 L1298,160 L1293,160 Z M1241,160 L1241,155 L1239,155 L1239,160 L1234,160 L1234,162 L1239,162 L1239,167 L1241,167 L1241,162 L1246,162 L1246,160 L1241,160 Z M1189,160 L1189,155 L1187,155 L1187,160 L1182,160 L1182,162 L1187,162 L1187,167 L1189,167 L1189,162 L1194,162 L1194,160 L1189,160 Z M1137,160 L1137,155 L1135,155 L1135,160 L1130,160 L1130,162 L1135,162 L1135,167 L1137,167 L1137,162 L1142,162 L1142,160 L1137,160 Z M1085,160 L1085,155 L1083,155 L1083,160 L1078,160 L1078,162 L1083,162 L1083,167 L1085,167 L1085,162 L1090,162 L1090,160 L1085,160 Z M1033,160 L1033,155 L1031,155 L1031,160 L1026,160 L1026,162 L1031,162 L1031,167 L1033,167 L1033,162 L1038,162 L1038,160 L1033,160 Z M981,160 L981,155 L979,155 L979,160 L974,160 L974,162 L979,162 L979,167 L981,167 L981,162 L986,162 L986,160 L981,160 Z M929,160 L929,155 L927,155 L927,160 L922,160 L922,162 L927,162 L927,167 L929,167 L929,162 L934,162 L934,160 L929,160 Z M877,160 L877,155 L875,155 L875,160 L870,160 L870,162 L875,162 L875,167 L877,167 L877,162 L882,162 L882,160 L877,160 Z M825,160 L825,155 L823,155 L823,160 L818,160 L818,162 L823,162 L823,167 L825,167 L825,162 L830,162 L830,160 L825,160 Z M773,160 L773,155 L771,155 L771,160 L766,160 L766,162 L771,162 L771,167 L773,167 L773,162 L778,162 L778,160 L773,160 Z M721,160 L721,155 L719,155 L719,160 L714,160 L714,162 L719,162 L719,167 L721,167 L721,162 L726,162 L726,160 L721,160 Z M669,160 L669,155 L667,155 L667,160 L662,160 L662,162 L667,162 L667,167 L669,167 L669,162 L674,162 L674,160 L669,160 Z M617,160 L617,155 L615,155 L615,160 L610,160 L610,162 L615,162 L615,167 L617,167 L617,162 L622,162 L622,160 L617,160 Z M565,160 L565,155 L563,155 L563,160 L558,160 L558,162 L563,162 L563,167 L565,167 L565,162 L570,162 L570,160 L565,160 Z M513,160 L513,155 L511,155 L511,160 L506,160 L506,162 L511,162 L511,167 L513,167 L513,162 L518,162 L518,160 L513,160 Z M461,160 L461,155 L459,155 L459,160 L454,160 L454,162 L459,162 L459,167 L461,167 L461,162 L466,162 L466,160 L461,160 Z M409,160 L409,155 L407,155 L407,160 L402,160 L402,162 L407,162 L407,167 L409,167 L409,162 L414,162 L414,160 L409,160 Z M357,160 L357,155 L355,155 L355,160 L350,160 L350,162 L355,162 L355,167 L357,167 L357,162 L362,162 L362,160 L357,160 Z M305,160 L305,155 L303,155 L303,160 L298,160 L298,162 L303,162 L303,167 L305,167 L305,162 L310,162 L310,160 L305,160 Z M253,160 L253,155 L251,155 L251,160 L246,160 L246,162 L251,162 L251,167 L253,167 L253,162 L258,162 L258,160 L253,160 Z M201,160 L201,155 L199,155 L199,160 L194,160 L194,162 L199,162 L199,167 L201,167 L201,162 L206,162 L206,160 L201,160 Z M149,160 L149,155 L147,155 L147,160 L142,160 L142,162 L147,162 L147,167 L149,167 L149,162 L154,162 L154,160 L149,160 Z M97,160 L97,155 L95,155 L95,160 L90,160 L90,162 L95,162 L95,167 L97,167 L97,162 L102,162 L102,160 L97,160 Z M1345,108 L1345,103 L1343,103 L1343,108 L1338,108 L1338,110 L1343,110 L1343,115 L1345,115 L1345,110 L1350,110 L1350,108 L1345,108 Z M1293,108 L1293,103 L1291,103 L1291,108 L1286,108 L1286,110 L1291,110 L1291,115 L1293,115 L1293,110 L1298,110 L1298,108 L1293,108 Z M1241,108 L1241,103 L1239,103 L1239,108 L1234,108 L1234,110 L1239,110 L1239,115 L1241,115 L1241,110 L1246,110 L1246,108 L1241,108 Z M1189,108 L1189,103 L1187,103 L1187,108 L1182,108 L1182,110 L1187,110 L1187,115 L1189,115 L1189,110 L1194,110 L1194,108 L1189,108 Z M1137,108 L1137,103 L1135,103 L1135,108 L1130,108 L1130,110 L1135,110 L1135,115 L1137,115 L1137,110 L1142,110 L1142,108 L1137,108 Z M1085,108 L1085,103 L1083,103 L1083,108 L1078,108 L1078,110 L1083,110 L1083,115 L1085,115 L1085,110 L1090,110 L1090,108 L1085,108 Z M1033,108 L1033,103 L1031,103 L1031,108 L1026,108 L1026,110 L1031,110 L1031,115 L1033,115 L1033,110 L1038,110 L1038,108 L1033,108 Z M981,108 L981,103 L979,103 L979,108 L974,108 L974,110 L979,110 L979,115 L981,115 L981,110 L986,110 L986,108 L981,108 Z M929,108 L929,103 L927,103 L927,108 L922,108 L922,110 L927,110 L927,115 L929,115 L929,110 L934,110 L934,108 L929,108 Z M877,108 L877,103 L875,103 L875,108 L870,108 L870,110 L875,110 L875,115 L877,115 L877,110 L882,110 L882,108 L877,108 Z M825,108 L825,103 L823,103 L823,108 L818,108 L818,110 L823,110 L823,115 L825,115 L825,110 L830,110 L830,108 L825,108 Z M773,108 L773,103 L771,103 L771,108 L766,108 L766,110 L771,110 L771,115 L773,115 L773,110 L778,110 L778,108 L773,108 Z M721,108 L721,103 L719,103 L719,108 L714,108 L714,110 L719,110 L719,115 L721,115 L721,110 L726,110 L726,108 L721,108 Z M669,108 L669,103 L667,103 L667,108 L662,108 L662,110 L667,110 L667,115 L669,115 L669,110 L674,110 L674,108 L669,108 Z M617,108 L617,103 L615,103 L615,108 L610,108 L610,110 L615,110 L615,115 L617,115 L617,110 L622,110 L622,108 L617,108 Z M565,108 L565,103 L563,103 L563,108 L558,108 L558,110 L563,110 L563,115 L565,115 L565,110 L570,110 L570,108 L565,108 Z M513,108 L513,103 L511,103 L511,108 L506,108 L506,110 L511,110 L511,115 L513,115 L513,110 L518,110 L518,108 L513,108 Z M461,108 L461,103 L459,103 L459,108 L454,108 L454,110 L459,110 L459,115 L461,115 L461,110 L466,110 L466,108 L461,108 Z M409,108 L409,103 L407,103 L407,108 L402,108 L402,110 L407,110 L407,115 L409,115 L409,110 L414,110 L414,108 L409,108 Z M357,108 L357,103 L355,103 L355,108 L350,108 L350,110 L355,110 L355,115 L357,115 L357,110 L362,110 L362,108 L357,108 Z M305,108 L305,103 L303,103 L303,108 L298,108 L298,110 L303,110 L303,115 L305,115 L305,110 L310,110 L310,108 L305,108 Z M253,108 L253,103 L251,103 L251,108 L246,108 L246,110 L251,110 L251,115 L253,115 L253,110 L258,110 L258,108 L253,108 Z M201,108 L201,103 L199,103 L199,108 L194,108 L194,110 L199,110 L199,115 L201,115 L201,110 L206,110 L206,108 L201,108 Z M149,108 L149,103 L147,103 L147,108 L142,108 L142,110 L147,110 L147,115 L149,115 L149,110 L154,110 L154,108 L149,108 Z M97,108 L97,103 L95,103 L95,108 L90,108 L90,110 L95,110 L95,115 L97,115 L97,110 L102,110 L102,108 L97,108 Z M1345,56 L1345,51 L1343,51 L1343,56 L1338,56 L1338,58 L1343,58 L1343,63 L1345,63 L1345,58 L1350,58 L1350,56 L1345,56 Z M1293,56 L1293,51 L1291,51 L1291,56 L1286,56 L1286,58 L1291,58 L1291,63 L1293,63 L1293,58 L1298,58 L1298,56 L1293,56 Z M1241,56 L1241,51 L1239,51 L1239,56 L1234,56 L1234,58 L1239,58 L1239,63 L1241,63 L1241,58 L1246,58 L1246,56 L1241,56 Z M1189,56 L1189,51 L1187,51 L1187,56 L1182,56 L1182,58 L1187,58 L1187,63 L1189,63 L1189,58 L1194,58 L1194,56 L1189,56 Z M1137,56 L1137,51 L1135,51 L1135,56 L1130,56 L1130,58 L1135,58 L1135,63 L1137,63 L1137,58 L1142,58 L1142,56 L1137,56 Z M1085,56 L1085,51 L1083,51 L1083,56 L1078,56 L1078,58 L1083,58 L1083,63 L1085,63 L1085,58 L1090,58 L1090,56 L1085,56 Z M1033,56 L1033,51 L1031,51 L1031,56 L1026,56 L1026,58 L1031,58 L1031,63 L1033,63 L1033,58 L1038,58 L1038,56 L1033,56 Z M981,56 L981,51 L979,51 L979,56 L974,56 L974,58 L979,58 L979,63 L981,63 L981,58 L986,58 L986,56 L981,56 Z M929,56 L929,51 L927,51 L927,56 L922,56 L922,58 L927,58 L927,63 L929,63 L929,58 L934,58 L934,56 L929,56 Z M877,56 L877,51 L875,51 L875,56 L870,56 L870,58 L875,58 L875,63 L877,63 L877,58 L882,58 L882,56 L877,56 Z M825,56 L825,51 L823,51 L823,56 L818,56 L818,58 L823,58 L823,63 L825,63 L825,58 L830,58 L830,56 L825,56 Z M773,56 L773,51 L771,51 L771,56 L766,56 L766,58 L771,58 L771,63 L773,63 L773,58 L778,58 L778,56 L773,56 Z M721,56 L721,51 L719,51 L719,56 L714,56 L714,58 L719,58 L719,63 L721,63 L721,58 L726,58 L726,56 L721,56 Z M669,56 L669,51 L667,51 L667,56 L662,56 L662,58 L667,58 L667,63 L669,63 L669,58 L674,58 L674,56 L669,56 Z M617,56 L617,51 L615,51 L615,56 L610,56 L610,58 L615,58 L615,63 L617,63 L617,58 L622,58 L622,56 L617,56 Z M565,56 L565,51 L563,51 L563,56 L558,56 L558,58 L563,58 L563,63 L565,63 L565,58 L570,58 L570,56 L565,56 Z M513,56 L513,51 L511,51 L511,56 L506,56 L506,58 L511,58 L511,63 L513,63 L513,58 L518,58 L518,56 L513,56 Z M461,56 L461,51 L459,51 L459,56 L454,56 L454,58 L459,58 L459,63 L461,63 L461,58 L466,58 L466,56 L461,56 Z M409,56 L409,51 L407,51 L407,56 L402,56 L402,58 L407,58 L407,63 L409,63 L409,58 L414,58 L414,56 L409,56 Z M357,56 L357,51 L355,51 L355,56 L350,56 L350,58 L355,58 L355,63 L357,63 L357,58 L362,58 L362,56 L357,56 Z M305,56 L305,51 L303,51 L303,56 L298,56 L298,58 L303,58 L303,63 L305,63 L305,58 L310,58 L310,56 L305,56 Z M253,56 L253,51 L251,51 L251,56 L246,56 L246,58 L251,58 L251,63 L253,63 L253,58 L258,58 L258,56 L253,56 Z M201,56 L201,51 L199,51 L199,56 L194,56 L194,58 L199,58 L199,63 L201,63 L201,58 L206,58 L206,56 L201,56 Z M149,56 L149,51 L147,51 L147,56 L142,56 L142,58 L147,58 L147,63 L149,63 L149,58 L154,58 L154,56 L149,56 Z M97,56 L97,51 L95,51 L95,56 L90,56 L90,58 L95,58 L95,63 L97,63 L97,58 L102,58 L102,56 L97,56 Z" id="Combined-Shape"></path>
        </g>
    </g>
</svg>