<?xml version="1.0" encoding="UTF-8"?>
<svg width="234px" height="30px" viewBox="0 0 234 30" version="1.1" xmlns="http://www.w3.org/2000/svg" xmlns:xlink="http://www.w3.org/1999/xlink">
    <!-- Generator: Sketch 42 (36781) - http://www.bohemiancoding.com/sketch -->
    <title>Group 3</title>
    <desc>Created with Sketch.</desc>
    <defs></defs>
    <g id="Page-1" stroke="none" stroke-width="1" fill="none" fill-rule="evenodd">
        <g id="normal" transform="translate(-603.000000, -17.000000)">
            <g id="Group-3" transform="translate(603.000000, 17.000000)">
                <path d="M21.912,26.308 L15.708,26.308 L15.708,23.316 L12.584,23.316 L12.584,20.06 L9.504,20.06 L9.504,23.14 L6.38,23.14 L6.38,26.308 L0,26.308 L0,4.396 L6.204,4.396 L6.204,13.724 L9.284,13.724 L9.284,10.688 L12.496,10.688 L12.496,13.724 L15.576,13.724 L15.576,4.396 L21.912,4.396 L21.912,26.308 Z M46.508,26.132 L24.332,26.132 L24.332,4 L46.508,4 L46.508,7.08 L30.712,7.08 L30.712,13.372 L40.172,13.372 L40.172,16.628 L30.712,16.628 L30.712,22.92 L46.508,22.92 L46.508,26.132 Z M70.312,26.308 L64.108,26.308 L64.108,20.06 L54.78,20.06 L54.78,26.308 L48.4,26.308 L48.4,10.644 L51.392,10.644 L51.392,7.52 L54.56,7.52 L54.56,4.396 L64.02,4.396 L64.02,7.388 L67.188,7.388 L67.188,10.512 L70.312,10.512 L70.312,26.308 Z M64.02,16.848 L64.02,10.512 L60.896,10.512 L60.896,7.52 L57.684,7.52 L57.684,10.688 L54.692,10.688 L54.692,16.848 L64.02,16.848 Z M94.512,16.848 L88.308,16.848 L88.308,19.928 L91.388,19.928 L91.388,23.096 L94.512,23.096 L94.512,26.308 L85.184,26.308 L85.184,23.316 L82.06,23.316 L82.06,20.06 L78.98,20.06 L78.98,26.308 L72.6,26.308 L72.6,4.396 L91.388,4.396 L91.388,7.388 L94.512,7.388 L94.512,16.848 Z M88.22,13.724 L88.22,7.52 L78.892,7.52 L78.892,16.848 L85.228,16.848 L85.228,13.724 L88.22,13.724 Z M160.477625,23.14 L157.485625,23.14 L157.485625,26.308 L138.565625,26.308 L138.565625,4.396 L157.353625,4.396 L157.353625,7.388 L160.477625,7.388 L160.477625,13.724 L157.441625,13.724 L157.441625,16.804 L160.477625,16.804 L160.477625,23.14 Z M154.185625,13.724 L154.185625,7.52 L144.857625,7.52 L144.857625,13.724 L154.185625,13.724 Z M154.185625,23.14 L154.185625,16.936 L144.857625,16.936 L144.857625,23.14 L154.185625,23.14 Z M184.677625,26.308 L178.473625,26.308 L178.473625,20.06 L169.145625,20.06 L169.145625,26.308 L162.765625,26.308 L162.765625,10.644 L165.757625,10.644 L165.757625,7.52 L168.925625,7.52 L168.925625,4.396 L178.385625,4.396 L178.385625,7.388 L181.553625,7.388 L181.553625,10.512 L184.677625,10.512 L184.677625,26.308 Z M178.385625,16.848 L178.385625,10.512 L175.261625,10.512 L175.261625,7.52 L172.049625,7.52 L172.049625,10.688 L169.057625,10.688 L169.057625,16.848 L178.385625,16.848 Z M208.877625,26.308 L202.673625,26.308 L202.673625,23.316 L199.549625,23.316 L199.549625,20.148 L196.425625,20.148 L196.425625,16.936 L193.345625,16.936 L193.345625,26.308 L186.965625,26.308 L186.965625,4.396 L193.169625,4.396 L193.169625,7.388 L196.337625,7.388 L196.337625,10.512 L199.461625,10.512 L199.461625,13.724 L202.541625,13.724 L202.541625,4.396 L208.877625,4.396 L208.877625,26.308 Z M233.077625,20.016 L230.085625,20.016 L230.085625,23.14 L226.961625,23.14 L226.961625,26.308 L211.165625,26.308 L211.165625,4.396 L226.785625,4.396 L226.785625,7.388 L229.953625,7.388 L229.953625,10.512 L233.077625,10.512 L233.077625,20.016 Z M226.785625,20.016 L226.785625,10.512 L223.661625,10.512 L223.661625,7.52 L217.457625,7.52 L217.457625,23.14 L223.793625,23.14 L223.793625,20.016 L226.785625,20.016 Z" id="wear-band-copy" fill="#FFFFFF"></path>
                <g id="Group-2-Copy-2" transform="translate(102.000000, 0.000000)">
                    <rect id="Rectangle-5" fill="#3ABE4D" x="3.75" y="3.75" width="7.5" height="7.5"></rect>
                    <rect id="Rectangle-5-Copy-5" fill="#F6A623" x="18.75" y="3.75" width="7.5" height="7.5"></rect>
                    <rect id="Rectangle-5-Copy-4" fill="#D0011B" x="11.25" y="0" width="7.5" height="7.5"></rect>
                    <rect id="Rectangle-5-Copy" fill="#50E3C2" x="0" y="11.25" width="7.5" height="7.5"></rect>
                    <rect id="Rectangle-5-Copy-7" fill="#F8E81C" x="22.5" y="11.25" width="7.5" height="7.5"></rect>
                    <rect id="Rectangle-5-Copy-2" fill="#4990E2" x="3.75" y="18.75" width="7.5" height="7.5"></rect>
                    <rect id="Rectangle-5-Copy-6" fill="#BD0FE1" x="18.75" y="18.75" width="7.5" height="7.5"></rect>
                    <rect id="Rectangle-5-Copy-3" fill="#9012FE" x="11.25" y="22.5" width="7.5" height="7.5"></rect>
                </g>
            </g>
        </g>
    </g>
</svg>