<?xml version="1.0" encoding="UTF-8"?>
<svg width="27px" height="26px" viewBox="0 0 27 26" version="1.1" xmlns="http://www.w3.org/2000/svg" xmlns:xlink="http://www.w3.org/1999/xlink">
    <!-- Generator: Sketch 42 (36781) - http://www.bohemiancoding.com/sketch -->
    <title>Group 15 Copy 2</title>
    <desc>Created with Sketch.</desc>
    <defs></defs>
    <g id="Page-1" stroke="none" stroke-width="1" fill="none" fill-rule="evenodd">
        <g id="interactive" transform="translate(-100.000000, -1032.000000)" fill="#FFFFFF">
            <g id="Group-23" transform="translate(73.000000, 1015.000000)">
                <g id="Group-15-Copy-2" transform="translate(27.000000, 17.000000)">
                    <rect id="Rectangle-5" x="0.6" y="8.73333333" width="4.26666667" height="4.26666667"></rect>
                    <rect id="Rectangle-5-Copy-13" x="0.6" y="13" width="4.26666667" height="4.26666667"></rect>
                    <rect id="Rectangle-5-Copy-8" x="4.86666667" y="4.46666667" width="4.26666667" height="4.26666667"></rect>
                    <rect id="Rectangle-5-Copy-15" x="4.86666667" y="17.2666667" width="4.26666667" height="4.26666667"></rect>
                    <rect id="Rectangle-5-Copy-9" x="9.13333333" y="0.2" width="4.26666667" height="4.26666667"></rect>
                    <rect id="Rectangle-5-Copy-17" x="9.13333333" y="21.5333333" width="4.26666667" height="4.26666667"></rect>
                    <rect id="Rectangle-5-Copy-10" x="13.4" y="0.2" width="4.26666667" height="4.26666667"></rect>
                    <rect id="Rectangle-5-Copy-18" x="13.4" y="21.5333333" width="4.26666667" height="4.26666667"></rect>
                    <rect id="Rectangle-5-Copy-11" x="17.6666667" y="4.46666667" width="4.26666667" height="4.26666667"></rect>
                    <rect id="Rectangle-5-Copy-16" x="17.6666667" y="17.2666667" width="4.26666667" height="4.26666667"></rect>
                    <rect id="Rectangle-5-Copy-12" x="21.9333333" y="8.73333333" width="4.26666667" height="4.26666667"></rect>
                    <rect id="Rectangle-5-Copy-14" x="21.9333333" y="13" width="4.26666667" height="4.26666667"></rect>
                    <path d="M13.5156627,15.4 L9.4,15.4 L9.4,14.7253012 L10.7590361,14.7253012 L10.7590361,11.9879518 L10.0939759,11.9879518 L10.0939759,11.2843373 L10.7493976,11.2843373 L10.7493976,10.6 L12.1373494,10.6 L12.1373494,14.6963855 L13.5156627,14.6963855 L13.5156627,15.4 Z M18.8843373,12.6433735 L18.2289157,12.6433735 L18.2289157,13.3277108 L17.5445783,13.3277108 L17.5445783,14.0216867 L16.146988,14.0216867 L16.146988,14.6963855 L18.8843373,14.6963855 L18.8843373,15.4 L14.0843373,15.4 L14.0843373,14.0409639 L14.739759,14.0409639 L14.739759,13.346988 L15.4337349,13.346988 L15.4337349,12.6626506 L16.8024096,12.6626506 L16.8024096,11.9686747 L17.5156627,11.9686747 L17.5156627,11.2843373 L15.4819277,11.2843373 L15.4819277,11.9493976 L14.0843373,11.9493976 L14.0843373,11.2843373 L14.739759,11.2843373 L14.739759,10.6 L18.2,10.6 L18.2,11.2554217 L18.8843373,11.2554217 L18.8843373,12.6433735 Z" id="12"></path>
                </g>
            </g>
        </g>
    </g>
</svg>