<?xml version="1.0" encoding="UTF-8"?>
<svg width="42px" height="13px" viewBox="0 0 42 13" version="1.1" xmlns="http://www.w3.org/2000/svg" xmlns:xlink="http://www.w3.org/1999/xlink">
    <!-- Generator: Sketch 42 (36781) - http://www.bohemiancoding.com/sketch -->
    <title>ABC Copy 2</title>
    <desc>Created with Sketch.</desc>
    <defs></defs>
    <g id="Page-1" stroke="none" stroke-width="1" fill="none" fill-rule="evenodd">
        <g id="interactive" transform="translate(-82.000000, -547.000000)" fill="#FFFFFF">
            <g id="Group-16" transform="translate(63.000000, 520.000000)">
                <g id="Group-19">
                    <path d="M31.948,39.948 L28.282,39.948 L28.282,36.256 L22.77,36.256 L22.77,39.948 L19,39.948 L19,30.692 L20.768,30.692 L20.768,28.846 L22.64,28.846 L22.64,27 L28.23,27 L28.23,28.768 L30.102,28.768 L30.102,30.614 L31.948,30.614 L31.948,39.948 Z M28.23,34.358 L28.23,30.614 L26.384,30.614 L26.384,28.846 L24.486,28.846 L24.486,30.718 L22.718,30.718 L22.718,34.358 L28.23,34.358 Z M46.248,38.076 L44.48,38.076 L44.48,39.948 L33.3,39.948 L33.3,27 L44.402,27 L44.402,28.768 L46.248,28.768 L46.248,32.512 L44.454,32.512 L44.454,34.332 L46.248,34.332 L46.248,38.076 Z M42.53,32.512 L42.53,28.846 L37.018,28.846 L37.018,32.512 L42.53,32.512 Z M42.53,38.076 L42.53,34.41 L37.018,34.41 L37.018,38.076 L42.53,38.076 Z M60.548,30.64 L56.882,30.64 L56.882,28.846 L53.216,28.846 L53.216,30.64 L51.318,30.64 L51.318,36.178 L53.138,36.178 L53.138,38.076 L56.804,38.076 L56.804,36.282 L60.548,36.282 L60.548,38.076 L58.78,38.076 L58.78,39.948 L51.318,39.948 L51.318,38.18 L49.472,38.18 L49.472,36.308 L47.6,36.308 L47.6,30.692 L49.368,30.692 L49.368,28.846 L51.24,28.846 L51.24,27 L58.702,27 L58.702,28.768 L60.548,28.768 L60.548,30.64 Z" id="ABC-Copy-2"></path>
                </g>
            </g>
        </g>
    </g>
</svg>