<?xml version="1.0" encoding="UTF-8"?>
<svg width="31px" height="18px" viewBox="0 0 30 18" version="1.1" xmlns="http://www.w3.org/2000/svg" xmlns:xlink="http://www.w3.org/1999/xlink">
    <!-- Generator: Sketch 42 (36781) - http://www.bohemiancoding.com/sketch -->
    <title>AA Copy 2</title>
    <desc>Created with Sketch.</desc>
    <defs></defs>
    <g id="Page-1" stroke="none" stroke-width="1" fill="none" fill-rule="evenodd">
        <g id="interactive" transform="translate(-97.000000, -830.000000)" fill="#FFFFFF">
            <g id="Group-10" transform="translate(73.000000, 807.000000)">
                <g id="Group-17">
                    <path d="M40.932,39.932 L36.138,39.932 L36.138,35.104 L28.93,35.104 L28.93,39.932 L24,39.932 L24,27.828 L26.312,27.828 L26.312,25.414 L28.76,25.414 L28.76,23 L36.07,23 L36.07,25.312 L38.518,25.312 L38.518,27.726 L40.932,27.726 L40.932,39.932 Z M36.07,32.622 L36.07,27.726 L33.656,27.726 L33.656,25.414 L31.174,25.414 L31.174,27.862 L28.862,27.862 L28.862,32.622 L36.07,32.622 Z M54.642,40.582 L51.258,40.582 L51.258,37.174 L46.17,37.174 L46.17,40.582 L42.69,40.582 L42.69,32.038 L44.322,32.038 L44.322,30.334 L46.05,30.334 L46.05,28.63 L51.21,28.63 L51.21,30.262 L52.938,30.262 L52.938,31.966 L54.642,31.966 L54.642,40.582 Z M51.21,35.422 L51.21,31.966 L49.506,31.966 L49.506,30.334 L47.754,30.334 L47.754,32.062 L46.122,32.062 L46.122,35.422 L51.21,35.422 Z" id="AA-Copy-2"></path>
                </g>
            </g>
        </g>
    </g>
</svg>
