<?xml version="1.0" encoding="UTF-8"?>
<svg width="20px" height="20px" viewBox="0 0 20 20" version="1.1" xmlns="http://www.w3.org/2000/svg" xmlns:xlink="http://www.w3.org/1999/xlink">
    <!-- Generator: Sketch 42 (36781) - http://www.bohemiancoding.com/sketch -->
    <title>Combined Shape Copy</title>
    <desc>Created with Sketch.</desc>
    <defs></defs>
    <g id="Page-1" stroke="none" stroke-width="1" fill="none" fill-rule="evenodd">
        <g id="interactive" transform="translate(-528.000000, -1191.000000)" fill="#000000">
            <g id="Group-Copy" transform="translate(516.000000, 1181.000000)">
                <path d="M17.7142857,16.4285714 L17.7142857,21.4285714 L19.8571429,21.4285714 L19.8571429,16.4285714 L17.7142857,16.4285714 Z M17.7142857,14.2857143 L30.5714286,14.2857143 L32,14.2857143 L32,21.4285714 L29.8571429,21.4285714 L29.8571429,16.4285714 L27,16.4285714 L27,21.4285714 L31.2857143,21.4285714 L31.2857143,23.5714286 L15.5714286,23.5714286 L15.5714286,22.5 L15.5714286,12.1428571 L17.7142857,12.1428571 L17.7142857,14.2857143 Z M22,16.4285714 L22,21.4285714 L24.8571429,21.4285714 L24.8571429,16.4285714 L22,16.4285714 Z M17.7142857,25.7142857 L21.2857143,25.7142857 L21.2857143,29.2857143 L17.7142857,29.2857143 L17.7142857,25.7142857 Z M25.5714286,25.7142857 L29.1428571,25.7142857 L29.1428571,29.2857143 L25.5714286,29.2857143 L25.5714286,25.7142857 Z M12.7142857,12.1428571 L15.5714286,12.1428571 L15.5714286,14.2857143 L12.7142857,14.2857143 L12.7142857,12.1428571 Z M12,10 L14.1428571,10 L14.1428571,12.1428571 L12,12.1428571 L12,10 Z M21.2857143,26.4285714 L22,26.4285714 L22,28.5714286 L21.2857143,28.5714286 L21.2857143,26.4285714 Z M29.1428571,26.4285714 L29.8571429,26.4285714 L29.8571429,28.5714286 L29.1428571,28.5714286 L29.1428571,26.4285714 Z M17,26.4285714 L17.7142857,26.4285714 L17.7142857,28.5714286 L17,28.5714286 L17,26.4285714 Z M24.8571429,26.4285714 L25.5714286,26.4285714 L25.5714286,28.5714286 L24.8571429,28.5714286 L24.8571429,26.4285714 Z M18.4285714,25 L20.5714286,25 L20.5714286,25.7142857 L18.4285714,25.7142857 L18.4285714,25 Z M26.2857143,25 L28.4285714,25 L28.4285714,25.7142857 L26.2857143,25.7142857 L26.2857143,25 Z M18.4285714,29.2857143 L20.5714286,29.2857143 L20.5714286,30 L18.4285714,30 L18.4285714,29.2857143 Z M26.2857143,29.2857143 L28.4285714,29.2857143 L28.4285714,30 L26.2857143,30 L26.2857143,29.2857143 Z" id="Combined-Shape-Copy"></path>
            </g>
        </g>
    </g>
</svg>