<?xml version="1.0" encoding="UTF-8"?>
<svg width="40px" height="23px" viewBox="0 0 40 23" version="1.1" xmlns="http://www.w3.org/2000/svg" xmlns:xlink="http://www.w3.org/1999/xlink">
    <!-- Generator: Sketch 42 (36781) - http://www.bohemiancoding.com/sketch -->
    <title>Group 14 Copy 2</title>
    <desc>Created with Sketch.</desc>
    <defs></defs>
    <g id="Page-1" stroke="none" stroke-width="1" fill="none" fill-rule="evenodd">
        <g id="interactive" transform="translate(-88.000000, -682.000000)">
            <g id="Group-11" transform="translate(68.000000, 662.000000)">
                <g id="Group-18">
                    <g id="Group-14-Copy-2" transform="translate(20.000000, 20.000000)">
                        <polygon id="Fill-1" fill="#636363" points="0.4 15.969491 4.60266667 16.269191 12.3706667 12.316391 8.168 12.019391"></polygon>
                        <polygon id="Fill-2" fill="#545454" points="4.6024 16.267841 12.3730667 12.317741 12.3837333 14.485841 4.61573333 18.435941"></polygon>
                        <polygon id="Fill-3" fill="#636363" points="4.57386667 11.715371 12.3445333 7.762571 14.4218667 7.911071 6.65386667 11.861171"></polygon>
                        <polygon id="Fill-4" fill="#636363" points="4.61546667 18.436481 12.3861333 14.486381 18.8234667 14.942681 11.0528 18.892781"></polygon>
                        <polygon id="Fill-5" fill="#282828" points="13.2208 19.045871 13.2341333 21.335471 21.0048 17.382671 20.9888 15.095771"></polygon>
                        <polygon id="Fill-6" fill="#636363" points="6.63893333 9.478151 14.4069333 5.528051 16.5749333 5.679251 8.80693333 9.632051"></polygon>
                        <polygon id="Fill-7" fill="#282828" points="10.9970667 9.786761 18.7677333 5.836661 18.7784 8.099261 11.0104 12.052061"></polygon>
                        <polygon id="Fill-8" fill="#545454" points="13.0216 12.194081 20.7922667 8.241281 20.8056 10.530881 13.0349333 14.483681"></polygon>
                        <polygon id="Fill-9" fill="#545454" points="11.0098667 12.051521 18.7805333 8.098721 20.7912 8.241821 13.0205333 12.194621"></polygon>
                        <polygon id="Fill-10" fill="#636363" points="13.036 14.482601 20.8066667 10.529801 23.0413333 10.689101 15.2706667 14.641901"></polygon>
                        <polygon id="Fill-11" fill="#545454" points="15.2717333 14.640821 23.0424 10.688021 23.0690667 15.242921 15.2984 19.193021"></polygon>
                        <polygon id="Fill-12" fill="#545454" points="13.1506667 7.699661 20.9213333 3.746861 20.9346667 5.987861 13.164 9.940661"></polygon>
                        <polygon id="Fill-13" fill="#636363" points="10.2448 0.799001 2.4768 4.751801 15.2154667 5.653601 22.9861333 1.703501"></polygon>
                        <polygon id="Fill-14" fill="#545454" points="15.2152 5.654141 15.2285333 7.849241 22.9992 3.893741 22.9858667 1.704041"></polygon>
                        <polygon id="Fill-15" fill="#FFFFFF" points="2.4904 7.041671 8.79173333 7.487171 8.80773333 9.630971 6.63973333 9.479771 6.65306667 11.863871 4.57306667 11.715371 4.58906667 14.002271 11.0237333 14.458571 11.0530667 18.891971 4.61306667 18.435671 4.6024 16.267571 0.399733333 15.970571 0.413066667 18.257471 2.55973333 18.408671 2.57306667 20.579471 13.2344 21.335471 13.2210667 19.045871 15.2984 19.194371 15.2717333 14.639471 13.0370667 14.482871 13.0210667 12.193271 11.0104 12.052871 10.9970667 9.787571 13.1650667 9.941471 13.1517333 7.700471 15.2290667 7.848971 15.2157333 5.653871 2.47706667 4.752071"></polygon>
                        <polygon id="Fill-16" fill="#636363" points="21.0664 19.602341 25.3357333 19.904741 33.1037333 15.951941 28.8344 15.649541"></polygon>
                        <polygon id="Fill-17" fill="#282828" points="20.9970667 8.350901 28.7677333 4.398101 28.8344 15.649001 21.0664 19.601801"></polygon>
                        <polygon id="Fill-18" fill="#545454" points="27.5032 20.059181 27.5165333 22.346081 35.2872 18.393281 35.2712 16.106381"></polygon>
                        <polygon id="Fill-19" fill="#000000" points="25.3210667 17.638901 33.0917333 13.688801 35.1237333 13.831901 27.3557333 17.784701"></polygon>
                        <polygon id="Fill-20" fill="#545454" points="29.5912 17.942651 29.6045333 20.205251 37.3752 16.252451 37.3592 13.989851"></polygon>
                        <polygon id="Fill-21" fill="#545454" points="27.2872 6.507071 27.3005333 8.656271 35.0685333 4.700771 35.0552 2.556971"></polygon>
                        <polygon id="Fill-22" fill="#636363" points="16.7152 5.761061 27.2885333 6.506261 35.0565333 2.556161 24.4805333 1.808261"></polygon>
                        <polygon id="Fill-23" fill="#636363" points="27.2989333 8.654111 35.0696 4.701311 37.2136 4.852511 29.4456 8.805311"></polygon>
                        <polygon id="Fill-24" fill="#545454" points="29.4448 8.805851 37.2154667 4.853051 37.2261333 7.118351 29.4581333 11.071151"></polygon>
                        <path d="M16.8112,21.587651 L27.5178667,22.346351 L27.5018667,20.059451 L29.6032,20.205251 L29.5898667,17.942651 L31.6245333,18.085751 L31.5818667,11.222351 L29.4592,11.071151 L29.4458667,8.805851 L27.2992,8.654651 L27.2858667,6.508151 L16.7152,5.760251 L16.8112,21.587651 Z M21.0672,19.603151 L20.9978667,8.352251 L25.1978667,8.649251 L25.2112,10.768751 L27.3125333,10.917251 L27.3552,17.786051 L25.3205333,17.640251 L25.3365333,19.902851 L21.0672,19.603151 Z" id="Fill-25" fill="#FFFFFF"></path>
                        <polygon id="Fill-26" fill="#545454" points="31.5808 11.221271 31.6234667 18.084671 39.3941333 14.134571 39.3941333 13.751171 39.3514667 7.268471"></polygon>
                        <polygon id="Fill-27" fill="#636363" points="29.4592 11.070611 31.5818667 11.221811 39.3525333 7.266311 37.2272 7.120511"></polygon>
                    </g>
                </g>
            </g>
        </g>
    </g>
</svg>