<?xml version="1.0" encoding="UTF-8"?>
<svg width="24px" height="27px" viewBox="0 0 24 27" version="1.1" xmlns="http://www.w3.org/2000/svg" xmlns:xlink="http://www.w3.org/1999/xlink">
    <!-- Generator: Sketch 42 (36781) - http://www.bohemiancoding.com/sketch -->
    <title>Combined Shape Copy 3</title>
    <desc>Created with Sketch.</desc>
    <defs></defs>
    <g id="Page-1" stroke="none" stroke-width="1" fill="none" fill-rule="evenodd">
        <g id="interactive" transform="translate(-91.000000, -396.000000)" fill="#FFFFFF">
            <g id="Group-25" transform="translate(63.000000, 378.000000)">
                <g id="Group-21">
                    <path d="M46.4,24.4094713 L29.6,24.4094713 L29.6,42.8 L28,42.8 L28,24.4 L29.5905287,24.4 L29.5905287,22.8094713 L47.1905287,22.8094713 L47.1905287,24.4 L48,24.4 L48,42.8 L46.4,42.8 L46.4,24.4094713 Z M49.5810574,19.6 L50.4,19.6 L50.4,21.2 L48.8,21.2 L48.8,19.984 L32,19.984 L32,18 L49.5810574,18 L49.5810574,19.6 Z M32,27.6 L36,27.6 L36,31.6 L32,31.6 L32,27.6 Z M32,35.6 L36,35.6 L36,39.6 L32,39.6 L32,35.6 Z M36,31.6 L40,31.6 L40,35.6 L36,35.6 L36,31.6 Z M40,27.6 L44,27.6 L44,31.6 L40,31.6 L40,27.6 Z M40,35.6 L44,35.6 L44,39.6 L40,39.6 L40,35.6 Z M28.8,21.2 L30.4,21.2 L30.4,22.8 L28.8,22.8 L28.8,21.2 Z M30.4,19.6 L32,19.6 L32,21.2 L30.4,21.2 L30.4,19.6 Z M47.2,21.2 L48.8,21.2 L48.8,22.8 L47.2,22.8 L47.2,21.2 Z M48,38.8 L50.4,38.8 L50.4,40.4 L48,40.4 L48,38.8 Z M47.1905287,42.8094713 L47.1905287,44.4094713 L29.5905287,44.4094713 L29.5905287,42.8094713 L47.1905287,42.8094713 Z M50.4,21.2 L52,21.2 L52,38.8 L50.4,38.8 L50.4,21.2 Z" id="Combined-Shape-Copy-3"></path>
                </g>
            </g>
        </g>
    </g>
</svg>